# xmcd CD database file
#
# Track frame offsets:
#	150
#	18600
#	37015
#	56585
#	74335
#	88787
#	110230
#	145435
#
# Disc length: 2262 seconds
#
# Revision: 0
# Processed by: cddbd v1.4PL0 Copyright (c) Steve Scherf et al.
# Submitted via: Feurio! 1.65 - http://www.feurio.com
#
DISCID=7a08d408
DTITLE=Memphis Slim and Matt Murphy - Together Again
DYEAR=1986
DGENRE=Blues
TTITLE0=Wish Me Well
TTITLE1=Steppin' Out
TTITLE2=Havin' Fun
TTITLE3=Movin' On
TTITLE4=Black Cat Blues
TTITLE5=Juggie Boogie
TTITLE6=People You Don't Know My Mind
TTITLE7=My Babe
EXTD=ARD Line Records ANCD 9.00450
EXTT0=
EXTT1=
EXTT2=
EXTT3=
EXTT4=
EXTT5=
EXTT6=
EXTT7=
PLAYORDER=
